<svg id="Layer_1" data-name="Layer 1" xmlns="http://www.w3.org/2000/svg" viewBox="0 0 781.33 381.72">
  <title>fabricademy</title>
  <g>
    <path d="M650.39,261l-96.26-97,30.12-30.12a20.35,20.35,0,1,0-28.78-28.78l-30,30-30.38-30.62,21.2-21.2a20.35,20.35,0,0,0-28.78-28.78L466.63,75.37,444.38,52.43c-5.92-6.16-17.22-4.7-25.1,3.25s-9.48,19.49-3.55,25.66l22.12,22.81L408,134l-29-29a20.35,20.35,0,1,0-28.78,28.78l29,29L283,259a20.35,20.35,0,1,0,28.78,28.78L408,191.56l23.59,23.59,7,6.85-37,37a20.35,20.35,0,0,0,28.78,28.78l36.85-36.85,35.05,35.65c8.61,8.85,22.09,9.57,30,1.6s7.25-21.72-1.36-30.57L496,222.17l29.41-29.41,96.38,97.15c5.92,6.16,17.22,4.7,25.1-3.25S656.31,267.17,650.39,261ZM467.2,193.36l-6.84-7-23.58-23.58,29.54-29.54,30.38,30.62Z" transform="translate(-79.63 -45.72)" style="fill: none;stroke: #00d8b4;stroke-miterlimit: 10;stroke-width: 5.6692914962768555px"/>
    <g>
      <path d="M79.63,336.76h51.29v4.35H84.24v40.42H124.4v4.35H84.24v40.42h-4.6Z" transform="translate(-79.63 -45.72)" style="fill: #00d8b4"/>
      <path d="M160.47,336.76H174l27.5,89.53h-4.6l-8.31-27.5H145.88l-8.31,27.5H133Zm-13.17,57.68h39.9l-16.37-53.33h-7.16Z" transform="translate(-79.63 -45.72)" style="fill: #00d8b4"/>
      <path d="M247.56,336.76c17.14,0,25.84,7,25.84,22.13,0,12.66-5.12,18.55-12.41,21.23,7.93,2.17,15.86,7.67,15.86,21.49,0,19.44-10.74,24.68-26.86,24.68H216.87V336.76Zm-26.09,4.35v37.22H249c13.94,0,19.7-6.39,19.7-19.44,0-12.41-6.78-17.78-21.1-17.78Zm0,41.57v39.27H250c13,0,22.13-4.48,22.13-20.34,0-18.16-16.63-18.93-23.15-18.93Z" transform="translate(-79.63 -45.72)" style="fill: #00d8b4"/>
      <path d="M300.77,389.2v37.09h-4.6V336.76h32.1c17.78,0,26.6,7.67,26.6,25.58,0,13.81-5.24,23.66-18.55,26.22l20.21,37.73h-5.24l-20-37.09Zm27.5-48.09h-27.5v43.74h27.5c16.24,0,21.74-9.21,21.74-22.51C350,347.51,343.23,341.11,328.27,341.11Z" transform="translate(-79.63 -45.72)" style="fill: #00d8b4"/>
      <path d="M374.57,336.76h4.6v89.53h-4.6Z" transform="translate(-79.63 -45.72)" style="fill: #00d8b4"/>
      <path d="M455,424.89a124,124,0,0,1-23.66,2.56c-26.35,0-31.85-17.14-31.85-45.53,0-27.88,4.6-46.3,31.85-46.3A128.48,128.48,0,0,1,455,338l-.38,4.48A132,132,0,0,0,431.35,340c-24,0-27,16.5-27,42s3.45,41.18,27,41.18a128.36,128.36,0,0,0,23.28-2.56Z" transform="translate(-79.63 -45.72)" style="fill: #00d8b4"/>
      <path d="M491.72,336.76h13.56l27.5,89.53h-4.6l-8.31-27.5H477.14l-8.31,27.5h-4.6Zm-13.17,57.68h39.9l-16.37-53.33h-7.16Z" transform="translate(-79.63 -45.72)" style="fill: #00d8b4"/>
      <path d="M548.12,426.29V336.76h33.25c22.51,0,29.93,21.23,29.93,43.74s-7.42,45.79-29.93,45.79Zm33.25-85.18H552.73v80.83h28.65c19.19,0,25.07-22.25,25.07-41.44S600.56,341.11,581.38,341.11Z" transform="translate(-79.63 -45.72)" style="fill: #00d8b4"/>
      <path d="M631.13,336.76h52.31v4.35H635.73v37.22h40v4.35h-40v39.27h47.71v4.35H631.13Z" transform="translate(-79.63 -45.72)" style="fill: #00d8b4"/>
      <path d="M701.73,336.76h9.72l31.46,82.49,31.46-82.49h9.72v89.53h-4.6V341.11H777.7l-31.46,82.49h-6.65l-31.46-82.49h-1.79v85.18h-4.6Z" transform="translate(-79.63 -45.72)" style="fill: #00d8b4"/>
      <path d="M831.8,426.29h-4.6v-38.5l-29.16-51h5.37l26.09,45.92,26.09-45.92H861l-29.16,51Z" transform="translate(-79.63 -45.72)" style="fill: #00d8b4"/>
    </g>
  </g>
</svg>
