<svg xmlns="http://www.w3.org/2000/svg" viewBox="0 0 382.6 250.84">
  <title>fabricademy-logo</title>
  <g id="Layer_2" data-name="Layer 2">
    <g id="Layer_1-2" data-name="Layer 1">
      <path d="M376.19,215.29l-96.26-97L310,88.15a20.35,20.35,0,1,0-28.78-28.78l-30,30L220.89,58.75l21.2-21.2A20.35,20.35,0,0,0,213.31,8.77L192.43,29.65,170.18,6.7C164.26.54,153,2,145.09,10s-9.48,19.49-3.55,25.66l22.12,22.81L133.8,88.28l-29-29A20.35,20.35,0,0,0,76,88.08l29,29L8.77,213.29a20.35,20.35,0,1,0,28.78,28.78l96.25-96.24,23.59,23.59,7,6.85-37,37a20.35,20.35,0,0,0,28.78,28.78L193,205.22,228,240.87c8.61,8.85,22.09,9.57,30,1.6s7.25-21.72-1.36-30.57l-34.87-35.46L251.16,147l96.38,97.15c5.92,6.16,17.22,4.7,25.1-3.25S382.11,221.45,376.19,215.29ZM193,147.64l-6.84-7-23.58-23.58,29.54-29.54,30.38,30.62Z" style="fill: none;stroke: #ffffff;stroke-miterlimit: 10;stroke-width: 5.6692914962768555px"/>
    </g>
  </g>
</svg>
