<?xml version="1.0" encoding="UTF-8"?>
<svg id="Layer_1" data-name="Layer 1" xmlns="http://www.w3.org/2000/svg" viewBox="0 0 422.48 276.48">
  <defs>
    <style>
      .cls-1 {
        fill: #372971;
        stroke-width: 0px;
      }
    </style>
  </defs>
  <path class="cls-1" d="m117.63,121.9c-7.09-7.08-13.86-13.29-20-20.09-12.07-13.37-6.06-34.87,11-39.73,9-2.57,17.14-.28,23.84,6.45,6.15,6.17,12.15,12.51,17.66,18.2l26-26.51c-.74-1.01-1.54-1.97-2.39-2.88-5.14-5.31-10.47-10.43-15.46-15.88-8.93-9.47-8.93-24.26,0-33.73,8.79-9.48,23.61-10.04,33.09-1.25.15.14.3.28.44.43,6.47,6.16,12.37,12.93,18.84,19.77,1.85-1.54,3.25-2.53,4.44-3.72,4.89-4.91,9.69-9.94,14.6-14.84,10-10,24.39-10.48,34-1.14,9.86,9.58,10,24.49.17,35.2-4.39,4.79-9.07,9.3-13.59,14-1.52,1.57-3,3.23-4,4.37l25.84,26.31c5.49-5.58,11.47-11.56,17.35-17.63,4-4.15,8.66-7,14.38-7.81,10.01-1.52,19.89,3.48,24.58,12.46,4.96,9.24,3.49,20.61-3.65,28.28-4.68,5.13-9.69,9.94-14.53,14.92-1.53,1.58-3,3.23-4.82,5.19,1.81,2,3.39,3.8,5.07,5.51,34.32,35.02,68.65,70.02,103,105,6,6.12,9.44,13,8.48,21.79-2,18.34-22.18,27.79-37.1,17.31-2.49-1.89-4.81-3.99-6.93-6.29-33.72-34.34-67.43-68.7-101.12-103.07-1.69-1.73-3.46-3.37-4.7-4.58-8.71,8.84-17.11,17.37-25.85,26.26.91,1,2.3,2.69,3.83,4.25,14.55,14.88,29.13,29.74,43.73,44.58,4.74,4.8,8,10.21,8.3,17.17.46,10.53-3.83,18.41-12.92,23.35-8.48,4.6-19.28,3.07-26.69-3.48-1.33-1.19-2.55-2.52-3.8-3.79-14.11-14.4-28.22-28.78-42.33-43.15-1.54-1.57-3.17-3-5-4.81-1.83,1.72-3.47,3.16-5,4.72-14.58,14.84-29.15,29.71-43.71,44.61-5.43,5.58-11.7,8.85-19.53,8.43-9.49-.5-16.53-5.17-20.47-13.87-4-8.92-3-17.63,2.89-25.53,1.27-1.57,2.64-3.05,4.11-4.43,14.26-14.56,28.52-29.11,42.78-43.65,1.53-1.57,3-3.23,4.1-4.45l-25.89-26.25c-1.18,1.12-3,2.73-4.63,4.44-34.34,34.99-68.67,69.99-103,105-4.89,5-10.32,8.48-17.41,8.7-10,.32-17.79-3.87-22.37-12.92-4.69-9.27-3.64-18.39,2.63-26.7,1.56-1.91,3.25-3.71,5.05-5.39l101.08-103.1c1.71-1.77,3.32-3.56,5.61-6.03Zm118.6-.13c-5-6.66-21.29-22.81-24.13-24.39l-24.55,25,24,24.44,24.68-25.05Z"/>
</svg>