<svg id="Layer_1" data-name="Layer 1" xmlns="http://www.w3.org/2000/svg" viewBox="0 0 1080 1080"><defs><style>.cls-1{fill:#000;}</style></defs><title>fabricademy-logo-white</title><g id="Layer_1-2" data-name="Layer 1"><path class="cls-1" d="M442.7,467.74c-7.09-7.08-13.86-13.29-20-20.09-12.07-13.37-6.06-34.87,11-39.73,9-2.57,17.14-.28,23.84,6.45,6.15,6.17,12.15,12.51,17.66,18.2l26-26.51a31.47,31.47,0,0,0-2.39-2.88c-5.14-5.31-10.47-10.43-15.46-15.88a24.58,24.58,0,0,1,0-33.73,23.42,23.42,0,0,1,33.09-1.25c.15.14.3.28.44.43,6.47,6.16,12.37,12.93,18.84,19.77,1.85-1.54,3.25-2.53,4.44-3.72,4.89-4.91,9.69-9.94,14.6-14.84,10-10,24.39-10.48,34-1.14,9.86,9.58,10,24.49.17,35.2-4.39,4.79-9.07,9.3-13.59,14-1.52,1.57-3,3.23-4,4.37l25.84,26.31c5.49-5.58,11.47-11.56,17.35-17.63,4-4.15,8.66-7,14.38-7.81a23.71,23.71,0,0,1,24.58,12.46A24.5,24.5,0,0,1,649.84,448c-4.68,5.13-9.69,9.94-14.53,14.92-1.53,1.58-3,3.23-4.82,5.19,1.81,2,3.39,3.8,5.07,5.51q51.48,52.53,103,105c6,6.12,9.44,13,8.48,21.79-2,18.34-22.18,27.79-37.1,17.31a53,53,0,0,1-6.93-6.29q-50.58-51.51-101.12-103.07c-1.69-1.73-3.46-3.37-4.7-4.58-8.71,8.84-17.11,17.37-25.85,26.26.91,1,2.3,2.69,3.83,4.25Q597,556.61,618.9,578.87c4.74,4.8,8,10.21,8.3,17.17.46,10.53-3.83,18.41-12.92,23.35-8.48,4.6-19.28,3.07-26.69-3.48-1.33-1.19-2.55-2.52-3.8-3.79q-21.16-21.6-42.33-43.15c-1.54-1.57-3.17-3-5-4.81-1.83,1.72-3.47,3.16-5,4.72q-21.87,22.26-43.71,44.61c-5.43,5.58-11.7,8.85-19.53,8.43-9.49-.5-16.53-5.17-20.47-13.87-4-8.92-3-17.63,2.89-25.53a44.18,44.18,0,0,1,4.11-4.43q21.39-21.84,42.78-43.65c1.53-1.57,3-3.23,4.1-4.45l-25.89-26.25c-1.18,1.12-3,2.73-4.63,4.44q-51.51,52.48-103,105c-4.89,5-10.32,8.48-17.41,8.7-10,.32-17.79-3.87-22.37-12.92-4.69-9.27-3.64-18.39,2.63-26.7a56,56,0,0,1,5.05-5.39l101.08-103.1C438.8,472,440.41,470.21,442.7,467.74Zm118.6-.13c-5-6.66-21.29-22.81-24.13-24.39l-24.55,25,24,24.44Z"/><path class="cls-1" d="M330.45,694.13l3.23,2.37c7,5.23,8.07,12.49,6.78,20.56-1.26,7.82-6,12.31-13.27,14.33a29.93,29.93,0,0,1-7.16,1.24q-12.27.24-24.56,0c-5.28-.09-7.43-2.06-7.46-7.31q-.15-27.77.12-55.52c0-4.67,2-6.65,6.52-6.75,8.85-.18,17.71-.13,26.55.1,6.61.18,12.34,2.49,14.68,9.45,2.44,7.25,2.37,14.24-4,19.78A15.14,15.14,0,0,0,330.45,694.13Zm-29.11,26.65c7,0,13.16.33,19.3-.11,4.76-.33,7.1-3.68,7.28-8.84.19-5.61-1.48-8.61-6.61-9.09-6.51-.62-13.11-.15-20-.15Zm0-30.59c5.9,0,11.18.3,16.4-.09,4.19-.32,6.41-3.16,6.58-7.11.2-4.47-1.84-7.58-6.3-8-5.4-.48-10.88-.12-16.68-.12Z"/><path class="cls-1" d="M801.44,689.51v33.74a29.7,29.7,0,0,1-.22,5.41c-.5,2.81-2.37,4.21-5.18,4.23s-4.72-1.29-5.35-4.07a22.61,22.61,0,0,1-.29-4.72V672.58c0-1.13,0-2.26.07-3.39a5.63,5.63,0,0,1,4.15-5.5,5.9,5.9,0,0,1,6.66,1.85,51.24,51.24,0,0,1,3.41,5c5.92,9.24,11.82,18.48,18.24,28.53,3.85-5.82,7.27-11,10.67-16.12s6.92-10.5,10.34-15.78c1.73-2.66,3.91-4.32,7.21-3.55,3,.7,4.55,3,4.56,7.31q.07,27.47-.11,54.91c0,5.42-2.8,7.81-7.4,7-3.35-.59-4.66-2.25-4.72-7-.13-9.72,0-19.44-.06-29.15a14.08,14.08,0,0,0-1.2-6.81c-1,1.29-2.16,2.51-3.06,3.89-3.45,5.26-6.76,10.61-10.24,15.84-4.54,6.84-8.51,6.74-13-.33-3.5-5.49-6.88-11.07-10.33-16.59-.81-1.28-1.73-2.5-2.59-3.74Z"/><path class="cls-1" d="M637.54,698.27c0-9-.08-18,0-27.06.07-6.15,1.57-7.72,7.42-7.81q11.61-.18,23.22,0c10.44.18,18.32,5.16,23.09,14.46,6.79,13.27,6.83,27,.14,40.27-4.81,9.53-12.82,14.68-23.61,14.7H645.91c-7.14-.06-8.34-1.32-8.39-8.83C637.5,715.42,637.54,706.84,637.54,698.27ZM650.16,675v46.22c6.38,0,12.32.31,18.21-.09,5.48-.37,9.53-3.58,11.82-8.66a33.71,33.71,0,0,0,.23-28.15c-2.3-5.34-6.33-8.85-12.12-9.24S656.48,675,650.16,675Z"/><path class="cls-1" d="M378,707.45v14.78a32.36,32.36,0,0,1-.2,5.39c-.5,2.92-2,5-5.26,5.06A6.42,6.42,0,0,1,366,728a20.53,20.53,0,0,1-.36-4.69c0-16.92-.06-33.83,0-50.75,0-8.18,1.33-9.53,9.23-9.58s15.92.26,23.88.15c8.45-.12,14.44,3.77,18.12,11.27,3.81,7.74,3.07,15.28-2,22.28-1.17,1.62-2.6,3-4.29,5,4.64,4.47,6.1,10.34,6.5,16.74.11,1.75,1.7,3.5,2.89,5,1.63,2.1,2.71,4.15,1.19,6.74-1.66,2.85-4.36,2.92-7,2.33a10.18,10.18,0,0,1-7.48-7,42,42,0,0,1-1.77-9.22c-.65-6.24-2.56-8.53-8.62-8.8C390.61,707.25,384.88,707.45,378,707.45Zm.29-10.38c7.07,0,13.43.19,19.78-.12a7.61,7.61,0,0,0,5-2.57,13.83,13.83,0,0,0,2.09-14.55c-1.16-2.84-3.15-5.12-6.35-5.2-6.75-.18-13.52,0-20.56,0Z"/><path class="cls-1" d="M599.67,717.65h-29c-1.21,2.83-2.4,5.69-3.65,8.53a29.87,29.87,0,0,1-2.38,4.81c-1.59,2.33-3.93,2.82-6.49,1.86-2.87-1.07-3.23-3.48-2.73-6.11a21.3,21.3,0,0,1,1.35-3.81q11-26.86,22.06-53.72a19.34,19.34,0,0,1,1.7-3.66,5.89,5.89,0,0,1,8.14-1.8,5.76,5.76,0,0,1,1.86,1.91,24,24,0,0,1,2,4.29q10.56,25.59,21,51.22a28,28,0,0,1,1.61,4.44c.83,3.58-.36,6.23-3.09,7.28s-5.52.1-7.15-3.16C603,725.94,601.52,721.94,599.67,717.65Zm-5.06-12.29-9.43-22.28c-3.53,8.11-6.66,14.84-9.17,22.28Z"/><path class="cls-1" d="M733.65,674.87v17h16.14c1.55,0,3.11,0,4.65,0,4.44.24,6.74,2.25,6.69,5.77s-2.32,5.31-7,5.46c-4,.13-8,0-12,0H734c-1.19,6.19-.91,11.88-.21,18.38h14.68c3.76,0,7.54,0,11.29.24s5.48,2.3,5.58,5.43-1.74,5.55-5.31,5.62c-11.08.21-22.16.24-33.23,0-4.25-.08-5.8-2.14-6-7.33-.2-7-.1-14-.07-21q.09-15.93.26-31.85c.08-8.22,1.09-9.24,9.36-9.28h25.92a24.25,24.25,0,0,1,4,.15c3.38.54,5.26,2.76,5.12,5.94s-2,5.07-5,5.18c-6,.23-12,.18-17.94.22C739.63,674.88,736.81,674.87,733.65,674.87Z"/><path class="cls-1" d="M266.7,727.91c-1.22,1.38-2.42,3.64-4.28,4.63a4.57,4.57,0,0,1-6.17-1.92l-.12-.23a63.29,63.29,0,0,1-4.1-9.22c-1.13-3.31-3.12-4.42-6.47-4.31-6.63.2-13.27.18-19.9,0-3.08-.08-4.95.92-6,4a62.44,62.44,0,0,1-3.73,8.66c-1.58,3.06-4.44,4.14-7.18,3.07s-3.47-3.64-2.32-7.41c.39-1.29.95-2.53,1.46-3.77q10.59-25.89,21.21-51.77a24.63,24.63,0,0,1,1.94-4.28c2.59-3.89,7.24-4,10-.18a17.56,17.56,0,0,1,1.74,3.63q11,26.79,22,53.61C265.42,723.87,265.85,725.39,266.7,727.91ZM245.22,705.2c-3.13-7.47-6-14.32-9.52-22.69-3.53,8.58-6.36,15.44-9.34,22.69Z"/><path class="cls-1" d="M483.26,698.26c-.23-27.81,26-41.79,48.42-33.07,1.79.7,4,1.75,4.79,3.3a9.35,9.35,0,0,1,.17,6.24c-.69,2.36-2.94,3.38-5.37,2.9-1.94-.38-3.77-1.27-5.68-1.83-10.22-3-20.22.21-25.52,8.09s-5.13,22,.34,29.54c5,6.88,14.84,10.05,24,7.63,1.92-.51,3.74-1.43,5.67-1.88,3.63-.83,6.35.73,7.37,4,.93,3-.13,5.43-3.45,7.13-15.78,8.06-41.23,3-48.57-18.74a41.29,41.29,0,0,1-1.65-6.57C483.43,702.79,483.42,700.52,483.26,698.26Z"/><path class="cls-1" d="M159,674.4v12.5c0,1.32.19,2.64.37,4.94h13.81a71,71,0,0,1,7.3.12c3.56.36,5.41,2.43,5.4,5.6s-1.83,5.21-5.44,5.58c-3.07.31-6.19.17-9.28.19H159c0,5.47,0,10.33,0,15.18,0,2.48.11,5-.05,7.44-.27,4.14-2.6,6.58-6,6.6s-5.85-2.36-6-6.54,0-8.57,0-12.85V671.89c0-7.45,1.62-9.13,9-9.19,8.62-.05,17.24.11,25.87.2a24.29,24.29,0,0,1,4,.25c3,.51,4.81,2.42,4.79,5.52s-1.93,5-4.85,5.53a31.13,31.13,0,0,1-5.29.18Z"/><path class="cls-1" d="M906.45,689.82l12.93-19.08c1.14-1.67,2.22-3.38,3.44-5a5.48,5.48,0,0,1,7.12-1.83c2.55,1.13,3.88,4.43,2.87,7.51a18.81,18.81,0,0,1-2.61,4.67c-5.29,7.79-10.56,15.61-16,23.29a12.88,12.88,0,0,0-2.5,8.15c.14,6.1.12,12.2,0,18.3-.09,4.76-1.83,6.93-5.3,7.14-3.79.23-6.07-2.11-6.25-7-.2-5.41-.32-10.86,0-16.25a19.76,19.76,0,0,0-4.73-14.87c-4.46-5.3-8.35-11.11-12.47-16.71-1.06-1.44-2.19-2.85-3.12-4.38-2.27-3.76-2-6.88.74-9.07,3-2.38,6.36-1.86,9.13,1.84,4,5.38,7.82,11,11.73,16.43C902.84,685,904.31,686.91,906.45,689.82Z"/><path class="cls-1" d="M458.45,698.11v25a27.49,27.49,0,0,1-.23,4.71c-.54,3.07-2.54,4.63-5.53,4.84a5.7,5.7,0,0,1-6.25-4.79,19.88,19.88,0,0,1-.2-4V672.48c0-6.57,1.8-9.14,6.15-9.18s6,2.42,6.06,9.13C458.48,681,458.45,689.54,458.45,698.11Z"/></g></svg>