<?xml version="1.0" encoding="UTF-8"?>
<svg id="Layer_1" data-name="Layer 1" xmlns="http://www.w3.org/2000/svg" version="1.1" viewBox="0 0 1150.1 58.5">
  <defs>
    <style>
      .cls-1 {
        fill-rule: evenodd;
      }

      .cls-1, .cls-2 {
        fill: #352e79;
        stroke-width: 0px;
      }
    </style>
  </defs>
  <path class="cls-2" d="M222.2,28.2c0-.6-.5-1.1-1.1-1.1h-5.5v-3.6h6.5c.6-.2.9-.8.8-1.4-.1-.4-.4-.7-.8-.8h-7.5c-.6,0-1.1.5-1.1,1.1v13.1c.2.6.8.9,1.4.8.4-.1.7-.4.8-.8v-6.3h5.5c.6,0,1.1-.5,1.1-1.1Z"/>
  <path class="cls-2" d="M232.2,31.4h0c0-.2,0-.5-.2-.7l-3-8.7h0v-.2c-.1,0-.2-.1-.2-.2h-.1c0-.1-.2-.2-.2-.2h-.4c0,0-.1,0-.2,0h-.3c0,.1-.2.2-.2.2,0,0,0,0-.1.1,0,0,0,.1-.1.2h0l-3.5,9h0l-1.6,4.2c-.2.6,0,1.2.6,1.4.1,0,.3,0,.4,0,.4,0,.8-.3,1-.7l1.3-3.4h5.1l1.2,3.4c.2.4.6.7,1,.7.1,0,.2,0,.3,0,.5-.2.8-.8.7-1.4l-1.4-3.8ZM226,30.3l1.9-4.8,1.7,4.8h-3.6Z"/>
  <path class="cls-2" d="M311,34.5h-6.7v-12.1c.2-.6-.2-1.2-.8-1.4-.6-.2-1.2.2-1.4.8h0c0,.2,0,.4,0,.6v13.2c0,.6.5,1.1,1.1,1.1h7.9c.6-.2.9-.8.8-1.4-.1-.4-.4-.7-.8-.8h0Z"/>
  <path class="cls-2" d="M297.9,21.3c-.6,0-1.1.5-1.1,1.1v13.1c.2.6.8.9,1.4.8.4-.1.7-.4.8-.8v-13.2c0-.6-.5-1-1-1.1Z"/>
  <path class="cls-2" d="M322.8,23.4c.6-.2.9-.8.8-1.4-.1-.4-.4-.7-.8-.8h-8.8c-.6,0-1.1.5-1.1,1.1v13.1c0,.6.5,1.1,1.1,1.1h8.8c.6-.2.9-.8.8-1.4-.1-.4-.4-.7-.8-.8h-7.7v-4.5h5.8c.6-.2.9-.8.8-1.4-.1-.4-.4-.7-.8-.8h-5.8v-4.4h7.7Z"/>
  <path class="cls-2" d="M283.5,21.6l-6,6-5.8-5.9c-.1,0-.2-.2-.3-.2-.1,0-.3,0-.4,0h-13.2c-.6,0-1.1.5-1.1,1.1v13c0,.6.5,1.1,1.1,1.1,0,0,.2,0,.3,0,0,0,.2,0,.3,0h13.1c.5,0,.9-.3,1-.7l5.2-5.2,5.7,5.6c.2.2.5.3.8.3.3,0,.6-.1.8-.3.4-.4.4-1.1,0-1.5l-5.7-5.6,6-6.1c.3-.5.1-1.2-.4-1.5,0,0,0,0,0,0-.3-.2-.8-.2-1.1,0ZM270.6,34.5h-11.9v-4.4h5.2c.6.2,1.2-.2,1.4-.8.2-.6-.2-1.2-.8-1.4-.2,0-.4,0-.6,0h-5.2v-4.4h11.7l5.5,5.5-5.4,5.4Z"/>
  <path class="cls-2" d="M294.7,21.3h-7.6c-.6-.2-1.2.2-1.4.8-.2.6.2,1.2.8,1.4.2,0,.4,0,.6,0h2.7v12c.2.6.8.9,1.4.8.4-.1.7-.4.8-.8v-12h2.7c.6-.2.9-.8.8-1.4-.1-.4-.4-.7-.8-.8Z"/>
  <path class="cls-2" d="M254.5,21.3h-7.7c-.6.2-.9.8-.8,1.4.1.4.4.7.8.8h2.8v12.2c.2.6.8.9,1.4.8.4-.1.7-.4.8-.8v-12.2h2.8c.6.2,1.2-.2,1.4-.8.2-.6-.2-1.2-.8-1.4,0,0,0,0,0,0-.2,0-.4,0-.6,0h0Z"/>
  <path class="cls-2" d="M245.2,25.7c0-.5,0-.9-.2-1.4-.1-.4-.3-.9-.6-1.2-.2-.4-.6-.7-.9-1-.4-.3-.9-.5-1.4-.6-.5-.1-1-.2-1.5-.1h-3.5c-.7,0-1.4.3-1.8.8-.4.6-.6,1.2-.5,1.9v9.9c0,.7.1,1.3.5,1.9.5.6,1.2.9,1.9.8h3.3c.5,0,1.1,0,1.6-.1.5,0,1-.2,1.5-.5.7-.4,1.3-1,1.7-1.8.4-.8.6-1.6.6-2.5,0-1.3-.4-2.5-1.4-3.4.6-.8.9-1.8.9-2.8ZM243.2,33.3c-.2.4-.4.7-.8.9-.2.1-.5.2-.8.2-.4,0-.9,0-1.3,0h-3.4c0-.2,0-.4,0-.6v-10.5h3.6c.4,0,.8,0,1.1.1.2,0,.4.1.6.3.2.1.3.3.4.4.1.2.2.4.3.6,0,.3.1.5.1.8,0,.7-.3,1.4-.9,1.8h-3.4c-.6-.2-1.2.2-1.4.8-.2.6.2,1.2.8,1.4.2,0,.4,0,.6,0h3.4c.9.4,1.4,1.2,1.3,2.1,0,.5,0,1-.3,1.5Z"/>
  <path class="cls-2" d="M333.8,28.8c-.5-.3-1-.6-1.6-.8-.6-.2-1.2-.4-1.8-.5-.6-.1-1.2-.3-1.8-.6-.3-.2-.6-.4-.8-.7-.2-.3-.3-.6-.3-1,0-.4,0-.7.3-1,.2-.3.6-.6,1-.7.6-.2,1.2-.3,1.8-.3.5,0,.9,0,1.4.2.3.1.6.3.9.5.2.1.3.3.4.5,0,.1.1.3.1.4.2.6.8.9,1.4.8.4-.1.7-.4.8-.8,0-.5-.1-.9-.3-1.4-.2-.5-.6-.9-1-1.2-.5-.4-1-.7-1.6-.9-.7-.2-1.4-.3-2.1-.3-.9,0-1.8.1-2.6.5-.8.3-1.4.8-1.9,1.5-.5.7-.7,1.4-.7,2.2,0,.8.2,1.6.7,2.2.4.6,1,1.1,1.7,1.4.7.3,1.4.6,2.2.7.5.1,1.1.3,1.6.4.4.1.7.3,1,.5.2.1.4.3.5.6.3.7.2,1.5-.2,2.1-.3.4-.6.7-1,.8-.6.3-1.2.4-1.9.4-.7,0-1.5-.1-2.1-.5-.4-.2-.7-.5-.9-.8-.2-.3-.4-.6-.4-.9.2-.6-.2-1.2-.8-1.4-.6-.2-1.2.2-1.4.8h0c0,.2,0,.4,0,.6,0,.7.2,1.4.6,2,.4.6.9,1.2,1.6,1.5,1,.5,2.1.8,3.2.8,1,0,1.9-.2,2.8-.6.8-.3,1.5-.9,2-1.6.5-.7.7-1.5.7-2.4,0-.7-.1-1.3-.4-1.9-.3-.5-.6-1-1.1-1.3Z"/>
  <path class="cls-2" d="M581.9,14.3c-8.1,0-14.6,6.5-14.6,14.6s6.5,14.6,14.6,14.6,14.6-6.5,14.6-14.6-6.5-14.6-14.6-14.6ZM585,35.8v-4.6c0-1.7-1.3-3.1-3-3.2-1.7,0-3,1.4-3,3.1,0,0,0,0,0,0h0v4.6h-5.5l.9-9.2,2.7-5.6,1.1,4.6,3.7-6.3,3.8,6.3,1.1-4.6,2.7,5.6.9,9.2h-5.5Z"/>
  <path class="cls-2" d="M634.3,22.6c-.1-1.1.7-2.2,1.8-2.3,0,0,0,0,0,0h.2c1.3.1,2.2,1.3,2.1,2.5-.1,1.1-1,2-2.1,2.1-1.1,0-2.1-.9-2.1-2.1,0,0,0,0,0,0,0,0,0-.1,0-.2M632.7,28.3c.8,1.2,2.2,1.8,3.6,1.8,2.1.1,3.8-1.4,4-3.5,0-.2,0-.3,0-.5v-7.4h-1.8v.7c-.6-.6-1.4-.9-2.2-.8-2.2.1-3.9,2-3.8,4.2.1,2.1,1.8,3.7,3.8,3.8.8,0,1.6-.3,2.1-.8v.4c.1,1.1-.6,2.1-1.7,2.2,0,0,0,0,0,0-.1,0-.3,0-.4,0-1,0-1.8-.5-2.2-1.4l-1.4,1.2ZM625.8,24.4c0-.7.6-1,1.4-1,.6,0,1.1.1,1.7.3v.9c-.5.4-1.2.7-1.9.7-.8,0-1.2-.4-1.2-.9M626.7,27c.8,0,1.6-.3,2.2-.8v.6h1.8v-5.2c0-2-1.4-3-3.4-3-1.3,0-2.5.6-3.2,1.7l1.3,1.1c.4-.7,1.1-1.1,1.9-1.1.8,0,1.5.5,1.6,1.2,0,0,0,0,0,0,0,0,0,0,0,0v.6c-.5-.2-1.1-.3-1.6-.3-1.9,0-3.4.9-3.4,2.7,0,1.4,1.1,2.5,2.5,2.5,0,0,0,0,0,0h.2M617.4,24.4c0-.7.6-1,1.4-1,.6,0,1.1.1,1.7.3v.9c-.5.4-1.2.7-1.9.7-.8,0-1.2-.4-1.2-.9M618.2,27c.8,0,1.6-.3,2.2-.8v.6h1.8v-5.2c0-2-1.4-3-3.4-3-1.3,0-2.5.6-3.2,1.7l1.3,1.1c.4-.7,1.1-1.1,1.9-1.1.8,0,1.5.5,1.6,1.2,0,0,0,0,0,0,0,0,0,0,0,0v.6c-.5-.2-1-.3-1.6-.3-1.9,0-3.4.9-3.4,2.7,0,1.4,1.1,2.5,2.5,2.5,0,0,0,0,0,0h.2M604.6,18.8h-2l2.2,8h2.2l1.6-5.7,1.6,5.7h2.2l2.2-8h-2l-1.4,5.5-1.5-5.5h-2.4l-1.5,5.5-1.4-5.5Z"/>
  <path class="cls-2" d="M603.2,34.8h-.9v-1.1h.9v-1.4h1.1v1.4h1.3v1.1h-1.3v2.9h1.3v1.1h-2.4v-4Z"/>
  <path class="cls-2" d="M607.9,37.1v.7h2.5v1h-3.7v-3.2c0-1,.7-1.9,1.8-2,0,0,0,0,0,0h.2c1,0,1.9.7,1.9,1.7,0,1-.7,1.8-1.7,1.9h-.3c-.3,0-.5,0-.8-.2ZM609.4,35.4c0-.4-.3-.7-.7-.7h0c-.4,0-.7.3-.7.7,0,.4.3.7.7.7h0c.4,0,.7-.3.8-.7h0Z"/>
  <path class="cls-2" d="M614.6,33.7h1.3l-1.6,2.5,1.8,2.6h-1.3l-1.1-1.7-1,1.7h-1.3l1.8-2.6-1.6-2.5h1.3l.9,1.5,1-1.5Z"/>
  <path class="cls-2" d="M617.3,34.8h-.9v-1.1h.9v-1.4h1.1v1.4h1.3v1.1h-1.3v2.9h1.3v1.1h-2.4v-4Z"/>
  <path class="cls-2" d="M621.6,31.4c.4,0,.7.3.7.7h0c0,.4-.2.8-.6.8-.4,0-.8-.2-.8-.6,0,0,0,0,0,0,0,0,0-.1,0-.2,0-.4.3-.7.7-.7h0ZM622.1,33.7v5.1h-1.1v-5h1.1Z"/>
  <path class="cls-2" d="M624.9,31.5v7.3h-1.1v-7.3h1.1Z"/>
  <path class="cls-2" d="M627.4,37.1v.7h2.5v1h-3.7v-3.2c0-1,.7-1.9,1.8-2,0,0,0,0,0,0h.1c1,0,1.9.7,1.9,1.7,0,1-.7,1.8-1.7,1.9h-.3c-.3,0-.5,0-.8-.2ZM628.9,35.4c0-.4-.3-.7-.8-.7,0,0,0,0,0,0h0c-.4,0-.7.3-.7.7,0,.4.3.7.7.7h0c.4,0,.8-.3.8-.7h0s0,0,0,0Z"/>
  <path class="cls-2" d="M632.4,31.5v7.3h-1.1v-7.3h1.1Z"/>
  <path class="cls-2" d="M637.8,33.7v5.1h-2.3c-.9.1-1.7-.5-1.8-1.4,0,0,0,0,0,0,0,0,0-.1,0-.2,0-.9.8-1.6,1.7-1.6,0,0,0,0,0,0h1.3v-.8h-2.5v-1h3.7ZM636.7,36.6h-1.1c-.5,0-.8.2-.8.6s.3.6.8.6h1.1v-1.2Z"/>
  <path class="cls-2" d="M642,38.9c-.5,0-1.1-.2-1.4-.6v.4h-1.1v-7.3h1.1v2.6c.4-.3.9-.5,1.4-.5,1.5.1,2.5,1.4,2.4,2.9-.1,1.3-1.1,2.3-2.4,2.4h0ZM641.9,37.9c.8,0,1.4-.7,1.4-1.5,0,0,0,0,0,0h0c0-1-.5-1.7-1.3-1.7s-1.3.8-1.3,1.6.4,1.7,1.3,1.7h0Z"/>
  <path class="cls-2" d="M652.3,33.7v5.1h-2.2c-.9.2-1.7-.4-1.9-1.3,0,0,0,0,0,0,0,0,0-.2,0-.3,0-.9.7-1.6,1.7-1.6h1.3v-.8h-2.5v-1h3.7ZM651.1,36.6h-1.1c-.5,0-.8.2-.8.6s.3.6.8.6h1.1v-1.2Z"/>
  <path class="cls-2" d="M660,38.8v-3.9h-1.9v3.9h-1.1v-3.9h-1.9v3.9h-1.1v-5.1h7.2v5.1h-1.3Z"/>
  <path class="cls-2" d="M662.6,35.1c0-.9.8-1.5,1.8-1.5.7,0,1.4.3,1.9.9l-.8.8c-.3-.4-.7-.6-1.1-.6-.4,0-.7.2-.7.5s.2.4.5.5l.8.2c.9.2,1.5.7,1.5,1.6s-.7,1.6-2,1.6c-.8,0-1.6-.3-2.1-1l.7-.8c.3.5.9.7,1.4.7.6,0,.8-.3.8-.5s-.1-.4-.6-.5l-.7-.2c-1-.2-1.6-.7-1.6-1.6Z"/>
  <path class="cls-2" d="M667.9,34.8h-.9v-1.1h.9v-1.4h1.1v1.4h1.3v1.1h-1.3v2.9h1.3v1.1h-2.4v-4Z"/>
  <path class="cls-2" d="M672.6,37.1v.7h2.5v1h-3.7v-3.2c0-1,.7-1.9,1.8-2,0,0,0,0,0,0h.1c1,0,1.9.7,1.9,1.7,0,1-.7,1.8-1.7,1.9h-.3c-.3,0-.5,0-.7-.2ZM674.1,35.4c0-.4-.3-.8-.7-.8-.4,0-.8.3-.8.7,0,.4.3.8.7.8h0c.4,0,.8-.3.8-.7h0Z"/>
  <path class="cls-2" d="M676.4,38.8v-5.1h2.8v1.1h-1.6v3.9h-1.2Z"/>
  <path class="cls-2" d="M682.4,33.6c.5,0,1,.2,1.4.5v-2.6h1.1v7.3h-1.1v-.4c-.4.4-.9.6-1.4.6-1.5-.1-2.5-1.4-2.4-2.9.1-1.3,1.1-2.3,2.4-2.4h0ZM682.5,34.6c-.9,0-1.3.8-1.3,1.6-.1.8.4,1.5,1.2,1.6,0,0,0,0,0,0h.1c.9,0,1.3-.8,1.3-1.6s-.4-1.6-1.3-1.6Z"/>
  <path class="cls-2" d="M690.4,33.7v5.1h-2.3c-.9.1-1.7-.5-1.8-1.4,0,0,0-.1,0-.2,0-.9.8-1.6,1.7-1.6,0,0,0,0,0,0h1.3v-.8h-2.5v-1h3.7ZM689.3,36.6h-1.2c-.4,0-.8.2-.8.6s.3.6.8.6h1.2v-1.2Z"/>
  <path class="cls-2" d="M698.1,38.8v-3.9h-1.8v3.9h-1.1v-3.9h-1.9v3.9h-1.1v-5.1h7.2v5.1h-1.3Z"/>
  <g>
    <path class="cls-1" d="M27.8,21h13v2.4h-2.7c-.3,0-.6.3-.6.7,0,.2,0,.4,0,.6v11.1c0,.6.3,1.2.9,1.3h2.4v2.4h-13v-2.4h2c.6.1,1.2-.3,1.3-.9,0,0,0,0,0,0,0-.2,0-.3,0-.5v-11.2c0-.7-.2-.9-.8-1-.8,0-1.7,0-2.6,0v-2.5Z"/>
    <path class="cls-1" d="M86.6,27.7c0,.2-.1.5-.2.7-.3.9-1,1.7-1.9,2-2,.8-4.3.7-6.2-.2-1.5-.7-2.4-2.1-2.5-3.7-.2-1.3.3-2.7,1.2-3.7.8-.8,1.8-1.3,2.9-1.6.4,0,.8-.1,1.1-.2h1.6c.8,0,1.5.3,2.2.6.8.3,1.3.9,1.6,1.7,0,.2,0,.3.1.5v.9c-.1.6-.5,1.1-1.1,1.3-.7.3-1.5.2-2.2-.1-.3-.1-.6-.4-.7-.8-.2-.7.2-1.5.9-1.7h.2c.2,0,.4,0,.6-.1h0c0,0-.1-.1-.1-.1-1-.9-2.5-.8-3.4.2,0,0,0,0,0,0-.2.2-.3.5-.4.7-.4,1.2-.5,2.5,0,3.7.2.8.8,1.3,1.5,1.5,1,.3,2.1-.3,2.4-1.3,0,0,0-.1,0-.2,0,0,0-.2,0-.2h2.3v.3Z"/>
    <path class="cls-1" d="M73.4,29.4h1.8c0,1,0,2-.2,2.9-.2.9-.9,1.6-1.8,1.7-.7.2-1.3.3-2,.3-.6,0-1.2,0-1.9,0-1.1-.1-2-.8-2.5-1.8l-.2.2c-1.1,1.1-2.6,1.7-4.2,1.7-1,0-1.9,0-2.9-.2-1.7-.3-2.9-1.8-2.7-3.5,0-1.1.5-2.1,1.5-2.5.8-.4,1.6-.6,2.4-.7l3.7-.6c.3,0,.5-.1.8-.3.9-.3,1.5-1.2,1.2-2.2,0,0,0,0,0,0,0-.2-.1-.3-.2-.4-.3-.6-.8-1-1.5-1.1-1.2-.3-2.5-.2-3.7.2h-.2v.2c.3,0,.5.1.7.2.2,0,.5.2.7.3.6.4.7,1.2.3,1.7,0,0,0,0,0,0,0,0,0,.1-.2.2-.4.4-.8.6-1.3.7-.8.2-1.7,0-2.4-.2-1-.4-1.5-1.5-1.1-2.5,0-.2.2-.4.3-.6.4-.6,1.1-1,1.8-1.3,1-.4,2.1-.6,3.1-.7,1.3-.1,2.5-.1,3.8,0,.9,0,1.8.2,2.7.5,1.3.5,2.2,1.7,2.4,3.1,0,.4,0,.7,0,1.1v5.4c0,.5.2.7.4.7.4.1.8,0,1-.5.1-.3.2-.6.2-1v-1M66.3,27.9c-1,.4-2,.7-3,1.1-.3.1-.6.3-.8.5-.6.5-.6,1.4,0,2,0,0,0,0,0,0,.2.2.3.3.6.4.4.1.8.2,1.2.2,1.1,0,2-.8,2-1.8v-2.2"/>
    <path class="cls-1" d="M49.5,29.3h-.2c-.8.9-1.8,1.3-2.9,1.3-.8,0-1.6,0-2.4-.3-1.3-.5-1.9-1.9-1.5-3.1,0,0,0,0,0,0h0c.2-.5.6-.9,1.1-1.1.7-.3,1.4-.4,2.1-.5l2.2-.4c.1,0,.3,0,.4-.1.5-.1.8-.5.9-1,0-.6-.2-1.2-.7-1.5-.3-.1-.6-.2-.9-.3-.7-.1-1.4,0-2.1.2l-.4.2h.2c.2,0,.4.2.7.3.3.1.6.4.6.8,0,.4-.2.7-.5.9-.5.3-1.1.4-1.7.3-.3,0-.5-.1-.8-.2-.7-.3-1-1-.8-1.7v-.2c.3-.5.7-.8,1.2-1,.8-.4,1.7-.6,2.6-.6,1.1-.1,2.2-.1,3.2,0,.4,0,.9.2,1.3.3,1,.3,1.7,1.2,1.7,2.2,0,1,0,1.9,0,2.9v1.6c0,.5.1.5.3.6.3,0,.6,0,.7-.4,0-.2.1-.4.1-.7v-.8h1.2v1.6c0,.1,0,.3,0,.4,0,.7-.6,1.3-1.3,1.4-1,.3-2,.3-3,.1-.7-.1-1.3-.6-1.6-1.2M49.1,25.9l-2.2.8c-.1,0-.2.1-.3.2-.3.2-.5.6-.4,1,0,.4.3.7.7.8.4.1.9.1,1.3,0,.5-.1.9-.6,1-1.1v-1.7"/>
  </g>
  <rect class="cls-2" x="102.7" y="10.1" width=".7" height="40.2"/>
  <g>
    <path class="cls-2" d="M800.5,18.5h1.1l6.2,15.7h-1l-2-5h-7.5l-2,5h-1l6.4-15.7ZM804.4,28.4l-3.4-8.9h0l-3.5,8.9h6.9Z"/>
    <path class="cls-2" d="M816.4,26.4c0-.5-.2-.9-.4-1.3-.2-.4-.5-.7-.8-1-.3-.3-.7-.4-1.1-.6-.5-.1-1-.2-1.5-.2-.7,0-1.3.1-1.9.4-.5.3-1,.7-1.4,1.1-.4.5-.7,1-.8,1.6-.2.6-.3,1.2-.3,1.9,0,.7,0,1.4.3,2.1.2.6.4,1.2.8,1.7.4.5.8.9,1.4,1.1.6.3,1.3.4,1.9.4.5,0,1,0,1.5-.3.9-.3,1.6-1,2-1.8.2-.4.4-.9.4-1.4h.8c0,.6-.3,1.2-.6,1.8-.5,1-1.4,1.8-2.5,2.2-1.3.4-2.8.4-4.1-.2-.6-.3-1.2-.8-1.6-1.3-.4-.6-.7-1.2-.9-1.9-.2-.7-.3-1.5-.3-2.2,0-.8.1-1.5.3-2.2.2-.7.5-1.3,1-1.9.4-.5,1-1,1.6-1.3.7-.3,1.5-.5,2.2-.5.6,0,1.2,0,1.7.2.5.1,1,.4,1.4.7.4.3.8.7,1,1.2.3.5.4,1.1.5,1.7h-.8Z"/>
    <path class="cls-2" d="M826.2,32h0c-.1.3-.3.7-.6,1-.3.3-.6.6-.9.8-.4.2-.8.4-1.2.6-.5.1-1,.2-1.5.2-1,0-2-.2-2.8-.8-.7-.6-1.1-1.5-1-2.4,0-.6.1-1.1.4-1.6.3-.4.6-.7,1-1,.4-.2.9-.4,1.3-.5.5-.1.9-.2,1.4-.2h1.3c.5-.1,1-.2,1.4-.3.3,0,.6-.2.8-.4.2-.2.3-.4.3-.7,0-.3,0-.7,0-1,0-.3,0-.6-.2-.9-.1-.3-.3-.5-.6-.7-.3-.2-.6-.4-1-.5-.5-.1-1-.2-1.5-.2-.9,0-1.7.2-2.5.7-.7.6-1,1.4-1,2.2h-.9c0-1.1.4-2.1,1.2-2.8.9-.7,2-1,3.2-.9,1.1,0,2.1.2,3,.8.6.5,1,1.3,1,2.1v7.1c0,.1,0,.3,0,.4,0,.1.1.2.2.3.1,0,.3.1.4.1.2,0,.4,0,.6,0v.7c-.2,0-.5,0-.7,0-.3,0-.5,0-.8-.1-.2,0-.3-.2-.4-.4-.1-.2-.2-.3-.2-.5,0-.2,0-.4,0-.7v-.6ZM826.2,27.8c-.2.3-.6.4-.9.5-.5.1-.9.2-1.4.2h-1.4c-.4.1-.8.2-1.2.3-.4,0-.8.2-1.1.4-.3.2-.6.5-.8.8-.2.4-.3.8-.3,1.3,0,.7.2,1.4.8,1.9.6.4,1.4.7,2.2.6.8,0,1.6-.1,2.2-.5.5-.3.9-.7,1.3-1.2.3-.4.5-.8.6-1.3,0-.3,0-.6.1-.8v-2.1Z"/>
    <path class="cls-2" d="M837.9,31.8h0c-1.1,2.4-3.9,3.5-6.3,2.4,0,0-.2,0-.2-.1-.6-.3-1.1-.8-1.5-1.3-.4-.6-.7-1.2-.9-1.9-.2-.7-.3-1.5-.3-2.2,0-.8.1-1.6.3-2.3.2-.7.5-1.3,1-1.9.4-.5,1-1,1.6-1.3.7-.3,1.5-.5,2.2-.5.5,0,.9,0,1.3.2.4.1.8.3,1.2.5.4.2.7.5,1,.9.3.4.5.8.6,1.2h0v-7h.8v15.7h-.8v-2.4ZM833.7,33.8c.7,0,1.3,0,1.9-.4.5-.3,1-.7,1.3-1.1.4-.5.6-1.1.8-1.7.3-1.3.3-2.6,0-3.8-.2-.6-.4-1.2-.8-1.7-.3-.5-.8-1-1.3-1.3-.6-.3-1.2-.5-1.9-.4-.7,0-1.3.1-1.9.4-.5.3-1,.7-1.3,1.1-.4.5-.6,1.1-.7,1.7-.2.6-.2,1.3-.2,2,0,.7,0,1.3.3,1.9.1.6.4,1.2.8,1.7.7,1,1.9,1.6,3.2,1.6"/>
    <path class="cls-2" d="M840.9,28.7h0c0,.8,0,1.4.3,2,.2.6.4,1.1.8,1.6.3.5.8.9,1.3,1.1.6.3,1.2.4,1.8.4,1,0,1.9-.3,2.7-.9.7-.7,1.2-1.6,1.4-2.5h.8c-.2,1.2-.7,2.2-1.6,3-.9.7-2.1,1.1-3.3,1.1-.8,0-1.5-.1-2.2-.4-.6-.3-1.1-.7-1.6-1.2-.4-.5-.8-1.2-.9-1.9-.4-1.5-.4-3.1,0-4.6.2-.7.5-1.3,1-1.9.4-.6,1-1,1.6-1.3.7-.3,1.5-.5,2.2-.5.7,0,1.4.1,2.1.4.6.3,1.1.7,1.5,1.2.4.5.7,1.1.9,1.8.2.7.3,1.4.3,2.1v.5h-9.1ZM849.2,28c0-.6-.1-1.2-.3-1.7-.2-.5-.4-1-.8-1.5-.3-.4-.8-.8-1.3-1-.5-.3-1.1-.4-1.7-.4-.6,0-1.2.1-1.8.4-.5.2-.9.6-1.3,1-.4.4-.6.9-.8,1.5-.2.6-.3,1.1-.3,1.7h8.3Z"/>
    <path class="cls-2" d="M851.2,22.9h.8v2.3h0c0-.4.2-.7.5-1,.5-.6,1.1-1.1,1.9-1.4.4-.1.8-.2,1.2-.2.5,0,1,0,1.4.2.4.1.7.3,1,.6.3.2.5.5.7.8.2.3.3.6.3.9h0c.3-.7.8-1.3,1.4-1.8.7-.4,1.5-.6,2.2-.6.5,0,1,0,1.4.2.4.1.8.4,1.1.7.3.3.6.8.7,1.2.2.6.3,1.1.3,1.7v7.7h-.8v-7.8c0-.6,0-1.2-.3-1.7-.2-.4-.5-.7-.8-.9-.3-.2-.6-.3-.9-.4-.2,0-.5,0-.7,0-.5,0-1,0-1.4.3-.4.2-.8.4-1.1.8-.3.4-.6.8-.7,1.3-.2.6-.3,1.2-.3,1.8v6.7h-.8v-7.8c0-.6,0-1.2-.3-1.7-.2-.4-.4-.7-.8-.9-.3-.2-.6-.3-.9-.4-.2,0-.5,0-.7,0-.9,0-1.8.4-2.4,1-.4.4-.7.8-.9,1.3-.2.6-.3,1.2-.3,1.9v6.7h-.8v-11.4Z"/>
    <path class="cls-2" d="M875.3,32h0c-.1.3-.3.7-.6,1-.3.3-.6.6-.9.8-.4.2-.8.4-1.2.6-.5.1-1,.2-1.5.2-1,0-2-.2-2.8-.8-.7-.6-1.1-1.5-1-2.4,0-.6.1-1.1.4-1.6.3-.4.6-.7,1-1,.4-.2.9-.4,1.3-.5.5-.1.9-.2,1.4-.2h1.3c.5-.1,1-.2,1.4-.3.3,0,.6-.2.8-.4.2-.2.3-.4.3-.7,0-.3,0-.7,0-1,0-.6-.3-1.2-.7-1.6-.3-.2-.6-.4-1-.5-.5-.1-1-.2-1.5-.2-.9,0-1.7.2-2.5.7-.7.6-1,1.4-1,2.2h-.8c0-1.1.4-2.1,1.2-2.8.9-.7,2-1,3.2-.9,1.1,0,2.1.2,3,.8.6.5,1,1.3.9,2.1v7.1c0,.1,0,.3,0,.4,0,.1.1.2.2.3.1,0,.3.1.4.1.2,0,.4,0,.6,0v.7c-.2,0-.5,0-.7,0-.3,0-.5,0-.8-.1-.2,0-.3-.2-.5-.4-.1-.2-.2-.3-.2-.5,0-.2,0-.4,0-.7v-.6ZM875.3,27.8c-.2.3-.6.4-.9.5-.5.1-.9.2-1.4.2h-1.4c-.4.1-.8.2-1.2.3-.4,0-.8.2-1.1.4-.3.2-.6.5-.8.8-.2.4-.3.8-.3,1.3,0,.7.2,1.4.8,1.9.6.4,1.4.7,2.2.6.8,0,1.6-.1,2.2-.5.5-.3.9-.7,1.3-1.2.3-.4.5-.8.6-1.3,0-.3,0-.6.1-.8v-2.1Z"/>
    <path class="cls-2" d="M877.9,22.9h.8v2.4h0c.1-.4.3-.8.6-1.1.3-.3.6-.6,1-.8.3-.2.7-.4,1.1-.5.4-.1.9-.2,1.3-.2.6,0,1.1,0,1.7.2.4.1.8.4,1.1.6.3.2.5.6.7.9.2.3.3.7.4,1,0,.3.1.6.1,1v7.9h-.8v-7.2c0-.4,0-.7,0-1.1,0-.4-.2-.8-.4-1.2-.2-.4-.6-.8-1-1-.5-.3-1.2-.4-1.8-.4-.6,0-1.2.1-1.7.3-.5.2-.9.6-1.3,1-.4.4-.6,1-.8,1.5-.2.6-.3,1.3-.3,1.9v6.1h-.8v-11.3Z"/>
    <path class="cls-2" d="M887.1,22.9h1l4.2,10.3,3.9-10.3h.9l-4.8,12.5c-.2.5-.5,1-.9,1.4-.3.2-.7.4-1.1.4-.5,0-1.1,0-1.6,0v-.7c.5,0,1,0,1.4-.1.4-.1.7-.3.9-.6.2-.3.4-.6.5-.9.2-.4,0-.1.3-.9l-4.7-11.3Z"/>
    <polygon class="cls-2" points="793.3 38.8 796.8 38.8 796.8 39.2 795.3 39.2 795.3 43.6 794.8 43.6 794.8 39.2 793.3 39.2 793.3 38.8"/>
    <path class="cls-2" d="M797.4,43.6v-4.8h.4v1.8c.2-.2.3-.3.5-.4.2-.1.4-.2.6-.2.2,0,.4,0,.6.1.2,0,.3.2.5.4,0,.1.1.2.1.4,0,.1,0,.3,0,.4v2.2h-.4v-2.2c0-.3,0-.5-.2-.7-.2-.2-.4-.3-.7-.2-.1,0-.2,0-.3,0,0,0-.2,0-.3.1,0,0-.2.1-.2.2-.1.2-.2.4-.2.6,0,.1,0,.2,0,.3v1.9h-.4Z"/>
    <path class="cls-2" d="M801.3,42c0,.2,0,.4,0,.5,0,.2.1.3.2.4,0,.1.2.2.4.3.2,0,.3.1.5.1.2,0,.5,0,.7-.2.2-.1.3-.4.4-.6h.4c0,.2-.1.3-.2.4,0,.1-.2.3-.3.4-.3.2-.6.3-1,.3-.2,0-.5,0-.7-.1-.2,0-.4-.2-.5-.4-.1-.2-.2-.4-.3-.6,0-.2,0-.5,0-.7,0-.2,0-.5.1-.7,0-.2.2-.4.3-.6.1-.2.3-.3.5-.4.2-.1.4-.2.7-.1.4,0,.8.2,1.1.5.3.4.4.9.4,1.4h-2.7ZM803.6,41.6c0-.2,0-.3,0-.5,0-.1-.1-.3-.2-.4,0-.1-.2-.2-.3-.3-.2,0-.3,0-.5,0-.2,0-.3,0-.5.1-.1,0-.2.2-.3.3,0,.1-.2.3-.2.4,0,.1,0,.3-.1.5h2.2Z"/>
    <path class="cls-2" d="M806.2,43.6l1.9-4.8h.5l1.8,4.8h-.5l-.6-1.5h-2.2l-.6,1.5h-.5ZM807.4,41.7h1.9l-.9-2.5-.9,2.5Z"/>
    <path class="cls-2" d="M813.5,41.3c0-.2-.2-.5-.4-.6-.2-.1-.4-.2-.7-.2-.2,0-.4,0-.5.1-.1,0-.3.2-.4.3,0,.1-.2.3-.2.5,0,.2,0,.4,0,.5,0,.2,0,.4,0,.5,0,.2.1.3.2.5.4.5,1.1.6,1.6.2,0,0,0,0,0,0,.2-.2.3-.4.3-.7h.4c0,.2-.1.4-.2.5,0,.2-.2.3-.3.4-.1.1-.3.2-.4.3-.2,0-.4,0-.6,0-.2,0-.5,0-.7-.1-.2,0-.4-.2-.5-.4-.1-.2-.2-.4-.3-.6,0-.2,0-.5,0-.7,0-.2,0-.4,0-.6,0-.2.2-.4.3-.6.1-.2.3-.3.5-.4.2-.1.4-.2.7-.1.3,0,.7,0,1,.3.3.2.4.6.5.9h-.3Z"/>
    <path class="cls-2" d="M816.3,41.6h.3c0,0,.2,0,.3,0,0,0,.1,0,.1-.2,0,0,0-.1,0-.2,0-.2,0-.4-.2-.5-.2-.1-.4-.2-.7-.2h-.4c-.1,0-.2,0-.3.1,0,0-.2.2-.2.2,0,.1,0,.2-.1.4h-.4c0-.2,0-.4.1-.5,0-.1.2-.3.3-.4.1,0,.3-.2.4-.2.2,0,.4,0,.5,0,.2,0,.3,0,.5,0,.1,0,.3,0,.4.2.1,0,.2.2.3.3,0,.2.1.3.1.5v1.9c0,.2,0,.3,0,.3s.2,0,.3,0v.3h-.2c0,0-.1,0-.2,0h-.2c0,0-.1,0-.2,0,0,0-.1-.2-.1-.3,0,0,0-.1,0-.2-.2.2-.4.3-.6.4-.2,0-.5.1-.7.1-.1,0-.3,0-.4,0-.1,0-.3-.1-.4-.2-.1,0-.2-.2-.2-.3,0-.1-.1-.3-.1-.4,0-.6.4-.9,1.2-1h.6ZM817,41.8c-.2,0-.3.1-.5.1h-.5c-.3,0-.5,0-.7.2-.2.2-.3.5-.2.8,0,0,0,.1.2.2,0,0,.1,0,.2.1,0,0,.2,0,.3,0,.2,0,.3,0,.5,0,.1,0,.3-.1.4-.2.1,0,.2-.2.3-.3,0-.1.1-.3.1-.4v-.5Z"/>
    <path class="cls-2" d="M821.1,38.8h.4v4.8h-.4v-.6h0c0,.1-.1.2-.2.3,0,0-.2.2-.3.2h-.3c-.1.2-.2.2-.3.1-.2,0-.5,0-.7-.1-.2,0-.3-.2-.5-.4-.1-.2-.2-.4-.3-.6,0-.2,0-.5,0-.7,0-.2,0-.5.1-.7,0-.2.1-.4.3-.6.1-.2.3-.3.5-.4.2-.1.4-.2.7-.1.2,0,.5,0,.7.2.2,0,.4.3.5.5v-1.8ZM821.1,41.9c0-.2,0-.4-.1-.6,0-.2-.1-.3-.2-.5,0-.1-.2-.2-.4-.3-.1,0-.3-.1-.5-.1-.2,0-.4,0-.5.1-.2,0-.3.2-.4.3-.1.1-.2.3-.2.5,0,.2,0,.4,0,.6,0,.2,0,.4,0,.6,0,.2.1.3.2.4.1.1.2.2.4.3.1,0,.3,0,.5,0,.2,0,.3,0,.5-.1.1,0,.3-.2.4-.3,0-.2.1-.3.2-.5,0-.2,0-.4,0-.6"/>
    <path class="cls-2" d="M822.8,42c0,.2,0,.4,0,.5,0,.2.1.3.2.4,0,.1.2.2.4.3.2,0,.3.1.5.1.2,0,.5,0,.7-.2.2-.1.3-.4.4-.6h.4c0,.2-.1.3-.2.4,0,.1-.2.3-.3.4-.3.2-.6.3-1,.3-.2,0-.5,0-.7-.2-.2,0-.4-.2-.5-.4-.1-.2-.2-.4-.3-.6-.1-.5-.1-1,0-1.4,0-.2.2-.4.3-.6.3-.3.7-.5,1.1-.5.4,0,.8.2,1.1.5.3.4.4.9.4,1.4h-2.7ZM825,41.6c0-.2,0-.3,0-.5,0-.1-.1-.3-.2-.4,0-.1-.2-.2-.3-.3-.2,0-.3,0-.5,0-.2,0-.3,0-.5.1-.1,0-.3.1-.3.3-.1.1-.2.2-.2.4,0,.1,0,.3-.1.5h2.2Z"/>
    <path class="cls-2" d="M826.6,43.6h-.4v-3.4h.4v.5h0c.1-.2.3-.3.4-.4.2-.1.4-.2.6-.2.1,0,.3,0,.4,0,.1,0,.2,0,.3.1,0,0,.1.1.2.2,0,0,0,.2.1.3,0-.2.3-.4.5-.5.2-.1.4-.2.7-.2.2,0,.4,0,.6.1.1,0,.3.2.3.3,0,.1.1.3.1.4,0,.2,0,.3,0,.5v2.2h-.4v-2.3c0-.2,0-.4-.2-.6-.1-.2-.4-.2-.6-.2-.1,0-.3,0-.4.1-.1,0-.3.2-.4.3,0,0,0,.1-.1.2v.2c0,0,0,.2,0,.2v2.1h-.4v-2.4c0-.2,0-.4-.2-.6-.1-.2-.4-.2-.6-.2-.3,0-.6.1-.8.4,0,0,0,.1-.1.2,0,0,0,.2,0,.3v2.3Z"/>
    <path class="cls-2" d="M831.7,44.5h.3c0,0,.2,0,.3-.1,0,0,.1-.2.2-.3,0-.1,0-.2.1-.3,0,0,0-.2.1-.3l-1.3-3.4h.4l1.1,3,1.1-3h.4l-1.3,3.4-.2.6c0,.2-.1.3-.2.4,0,.1-.2.2-.3.3-.1,0-.2.1-.4.1h-.2c0,0-.1,0-.2,0v-.5Z"/>
    <path class="cls-2" d="M838.3,43.7c-.2,0-.4,0-.6-.1-.2,0-.4-.2-.5-.3-.2-.2-.3-.4-.3-.6,0-.3-.1-.5-.1-.8,0-.2,0-.5.1-.7,0-.2.2-.4.3-.6.1-.2.3-.3.5-.4.2-.1.5-.2.7-.1.2,0,.5,0,.7.1.2,0,.4.2.5.4.1.2.2.4.3.6,0,.2.1.5.1.7,0,.3,0,.5-.1.7,0,.2-.2.4-.3.6-.1.2-.3.3-.4.4-.2,0-.4.1-.7.1M839.5,41.8c0-.2,0-.4,0-.6,0-.2-.1-.3-.2-.5,0-.1-.2-.2-.4-.3-.4-.2-.8-.2-1.1,0-.1,0-.3.2-.4.3,0,.1-.2.3-.2.5,0,.2,0,.4,0,.6,0,.2,0,.4,0,.6,0,.2.1.3.2.5.1.1.2.2.4.3.2,0,.3.1.5.1.4,0,.7-.2.9-.4,0-.1.2-.3.2-.5,0-.2,0-.4,0-.5"/>
    <path class="cls-2" d="M840.3,40.5v-.3h.5v-.5c0-.2,0-.5.2-.7.1-.2.3-.3.6-.2h.3v.3h-.2c0,0-.2,0-.2,0,0,0-.1,0-.1.2,0,0,0,.1,0,.2v.8h.7v.3h-.7v3.1h-.4v-3.1h-.6Z"/>
    <path class="cls-2" d="M845.7,38.7c-.3.5-.6,1-.8,1.5-.2.5-.3,1.1-.3,1.6,0,.6,0,1.1.3,1.6.2.5.4,1,.7,1.5h-.3c-.2-.3-.3-.5-.5-.7-.1-.2-.3-.5-.4-.7,0-.2-.2-.5-.2-.8-.1-.6-.1-1.2,0-1.7,0-.3.2-.5.3-.7.1-.3.2-.5.4-.7.1-.2.3-.5.5-.7h.3Z"/>
    <path class="cls-2" d="M848.1,41.6h.3c0,0,.2,0,.3,0,0,0,.1,0,.1-.2v-.2c0-.2,0-.4-.2-.5-.2-.1-.4-.2-.7-.2h-.4c-.1,0-.2,0-.3.1,0,0-.2.2-.2.2,0,.1,0,.2-.1.4h-.4c0-.2,0-.4.1-.5,0-.1.2-.3.3-.4.1,0,.3-.2.4-.2.2,0,.4,0,.5,0,.2,0,.3,0,.5,0,.1,0,.3,0,.4.2.1,0,.2.2.3.3,0,.2.1.3.1.5v1.9c0,.2,0,.3,0,.3s.2,0,.3,0v.3h-.5c0,0-.1,0-.2,0,0,0,0,0-.1-.1v-.2c0,0,0-.1,0-.2-.2.2-.4.3-.6.4-.2,0-.5.1-.7.1-.1,0-.3,0-.4,0-.1,0-.3-.1-.4-.2-.1,0-.2-.2-.3-.3,0-.1,0-.3,0-.4,0-.6.4-.9,1.2-1h.5ZM848.8,41.8c-.2,0-.3.1-.5.1h-.5c-.2,0-.5,0-.7.2-.2.1-.3.3-.3.5,0,.2,0,.4.2.5,0,0,.2,0,.2.1,0,0,.2,0,.3,0,.2,0,.3,0,.5,0,.1,0,.3,0,.4-.2.1,0,.2-.2.3-.3,0-.1.1-.3.1-.4v-.5Z"/>
    <rect class="cls-2" x="850.3" y="38.8" width=".4" height="4.8"/>
    <path class="cls-2" d="M852.1,43.6h-.4v-3.4h.4v.5h0c0-.2.3-.3.4-.4.2-.1.4-.2.6-.2.3,0,.5,0,.7.2,0,0,.1.1.2.2,0,0,.1.2.1.3,0-.2.3-.4.5-.5.2-.1.4-.2.7-.2.2,0,.4,0,.6.1.1,0,.2.2.3.3,0,.1.1.3.2.4,0,.2,0,.3,0,.5v2.2h-.4v-2.4c0-.2,0-.4-.2-.6-.1-.2-.4-.2-.6-.2-.3,0-.6.1-.8.4,0,0,0,.1-.1.2,0,0,0,.2,0,.2v2.3h-.4v-2.4c0-.2,0-.4-.2-.6-.1-.2-.4-.2-.6-.2-.1,0-.3,0-.4.1-.2.1-.4.3-.5.5,0,0,0,.2,0,.2,0,0,0,.2,0,.2v2.1Z"/>
    <path class="cls-2" d="M858.6,43.7c-.2,0-.4,0-.6-.1-.2,0-.4-.2-.5-.3-.2-.2-.3-.4-.3-.6,0-.3-.1-.5-.1-.8,0-.2,0-.5.1-.7,0-.2.2-.4.3-.6.1-.2.3-.3.5-.4.2-.1.5-.2.7-.1.2,0,.5,0,.7.1.2,0,.4.2.5.4.1.2.2.4.3.6,0,.2.1.5.1.7,0,.3,0,.5-.1.7,0,.2-.2.4-.3.6-.1.2-.3.3-.5.4-.2,0-.4.1-.7.1M859.8,41.9c0-.2,0-.4,0-.6,0-.2-.1-.3-.2-.5,0-.1-.2-.2-.4-.3-.4-.2-.8-.2-1.1,0-.1,0-.3.2-.4.3,0,.1-.2.3-.2.5,0,.2,0,.4,0,.6,0,.2,0,.4,0,.6,0,.2.1.3.2.5.1.1.2.2.4.3.2,0,.3.1.5.1.2,0,.4,0,.5-.1.1,0,.3-.2.4-.3,0-.1.2-.3.2-.5,0-.2,0-.4,0-.5"/>
    <path class="cls-2" d="M861.2,42.5c0,.2.1.5.3.6.2.1.5.2.7.2.1,0,.2,0,.4,0,0,0,.2,0,.3-.1,0,0,.1-.1.2-.2,0,0,0-.2,0-.2,0-.1,0-.3-.2-.4-.1,0-.3-.2-.4-.2h-.5c-.2-.2-.4-.2-.5-.3-.2,0-.3-.2-.4-.3-.1-.1-.2-.3-.2-.5,0-.3.1-.5.3-.7.3-.2.6-.3.9-.3.3,0,.6,0,.9.2.3.2.4.5.4.8h-.4c0-.2-.1-.4-.3-.6-.2-.1-.4-.2-.6-.2-.2,0-.4,0-.6.2-.1.1-.2.3-.2.4,0,.1,0,.3.2.3.1,0,.3.2.4.2.2,0,.3.1.5.1.2,0,.4.1.5.2.2,0,.3.2.4.3.1.1.2.3.2.5,0,.2,0,.3-.1.4,0,.1-.2.2-.3.3-.1,0-.3.2-.4.2-.2,0-.4,0-.6,0-.2,0-.4,0-.5,0-.2,0-.3-.1-.4-.2-.1-.1-.2-.2-.3-.4,0-.1,0-.3-.1-.5h.4Z"/>
    <path class="cls-2" d="M865.5,43.6h-.2c0,0-.2,0-.3,0-.2,0-.3,0-.5-.1-.1-.2-.2-.3-.2-.5v-2.4h-.5v-.3h.5v-1h.4v1h.6v.3h-.6v2.4c0,0,0,.2,0,.2,0,0,0,0,0,.1,0,0,0,0,.1,0h.5v.3Z"/>
    <path class="cls-2" d="M866,44.9c.3-.5.6-1,.8-1.5.2-.5.3-1.1.3-1.6,0-.5,0-1.1-.3-1.6-.2-.5-.4-1-.7-1.5h.3c.2.3.3.5.5.7.1.2.3.5.3.7,0,.3.2.5.2.8.1.6.1,1.2,0,1.7,0,.3-.1.5-.2.8,0,.3-.2.5-.4.7-.1.2-.3.5-.5.7h-.3Z"/>
    <path class="cls-2" d="M869.8,43.6l1.9-4.8h.5l1.8,4.8h-.5l-.6-1.5h-2.2l-.6,1.5h-.5ZM871,41.7h1.9l-.9-2.5-.9,2.5Z"/>
    <path class="cls-2" d="M875.1,43.6h-.4v-3.4h.4v.5c.1-.2.3-.3.5-.4.2-.1.4-.2.6-.2.2,0,.4,0,.6.1.2,0,.3.2.5.4,0,.1.1.2.1.4,0,.1,0,.3,0,.4v2.2h-.4v-2.2c0-.3,0-.5-.2-.7-.2-.2-.4-.3-.7-.2-.1,0-.2,0-.3,0,0,0-.2,0-.3.1,0,0-.2.1-.2.2,0,0-.1.2-.1.3,0,.1,0,.2,0,.3,0,.1,0,.2,0,.3v1.9Z"/>
    <path class="cls-2" d="M878.3,44.5h.3c.1,0,.2,0,.3-.1,0,0,.1-.2.2-.3,0-.1,0-.2.1-.3,0,0,0-.2.1-.3l-1.3-3.4h.4l1.1,3,1.1-3h.4l-1.3,3.4c0,.2-.2.4-.2.6,0,.2-.1.3-.2.4,0,.1-.2.2-.3.3-.1,0-.2.1-.3.1h-.2c0,0-.1,0-.2,0v-.5Z"/>
    <path class="cls-2" d="M882.9,43.6h-.2c0,0-.2,0-.3,0-.2,0-.3,0-.5-.1-.1-.2-.2-.3-.1-.5v-2.4h-.5v-.3h.5v-1h.4v1h.6v.3h-.7v2.4c0,0,0,.2,0,.2,0,0,0,0,0,.1,0,0,0,0,.1,0h.6v.3Z"/>
    <path class="cls-2" d="M883.5,43.6v-4.8h.4v1.8c.1-.2.3-.3.5-.4.2-.1.4-.2.6-.2.2,0,.4,0,.6.1.2,0,.3.2.5.4,0,.1.1.2.1.4v2.7h-.4v-2.2c0-.2,0-.5-.2-.7-.2-.2-.4-.3-.7-.2-.1,0-.2,0-.3,0,0,0-.2,0-.3.1,0,0-.1.1-.2.2,0,0-.1.2-.1.3,0,0,0,.2,0,.3v2.2h-.4Z"/>
    <path class="cls-2" d="M887.3,38.8h.4v.6h-.4v-.6ZM887.3,40.2h.4v3.5h-.4v-3.5Z"/>
    <path class="cls-2" d="M889.1,43.6h-.4v-3.4h.4v.5c.1-.2.3-.3.5-.4.2-.1.4-.2.6-.2.2,0,.4,0,.6.1.2,0,.3.2.5.4,0,.1.1.2.1.4,0,.1,0,.3,0,.4v2.2h-.4v-2.2c0-.2,0-.5-.2-.7-.2-.2-.4-.3-.7-.2-.1,0-.2,0-.3,0,0,0-.2,0-.3.1,0,0-.1.1-.2.2,0,0-.1.2-.1.3,0,.1,0,.2,0,.3,0,.1,0,.2,0,.3v1.9Z"/>
    <path class="cls-2" d="M895.1,40.2h.4v3.1c0,.2,0,.4,0,.7,0,.2-.1.4-.2.6-.1.2-.3.3-.5.4-.3.1-.5.1-.8.1-.2,0-.4,0-.7,0-.2,0-.3-.1-.4-.2-.1,0-.2-.2-.3-.3,0,0-.1-.2-.1-.3h.4c0,.1,0,.2.1.3,0,0,.1.1.2.2,0,0,.2,0,.3.1h.3c.2,0,.4,0,.7-.1.2,0,.3-.2.4-.4,0-.2.1-.3.2-.5,0-.2,0-.4,0-.6-.1.2-.3.4-.5.5-.2.1-.5.2-.7.2-.2,0-.5,0-.7-.1-.2,0-.4-.2-.5-.4-.1-.2-.2-.4-.3-.6,0-.2,0-.5,0-.7,0-.2,0-.5,0-.7,0-.2.1-.4.3-.6.1-.2.3-.3.5-.4.2-.1.5-.1.7-.1h.3c.1,0,.2,0,.3.1.1,0,.2.1.3.2,0,0,.2.2.2.3h0v-.5ZM895.1,41.9c0-.2,0-.4,0-.6,0-.2-.1-.3-.2-.5,0-.1-.2-.2-.4-.3-.2,0-.3-.1-.5-.1-.2,0-.3,0-.5,0-.1,0-.3.1-.4.3-.1.1-.2.3-.2.4,0,.2,0,.4,0,.6,0,.2,0,.4,0,.6,0,.2.1.3.2.5.2.3.6.5.9.5.2,0,.3,0,.5-.1.1,0,.3-.2.4-.3.2-.3.3-.7.3-1"/>
    <polygon class="cls-2" points="753.8 43.7 762.6 38.6 761.4 37.9 759.3 36.7 759.3 32.8 753.8 35.9 747.8 32.5 741.1 36.4 753.8 43.7"/>
    <polygon class="cls-2" points="774.5 43.4 787.3 36 787.3 21.3 782.2 24.2 780.5 25.1 780.5 32.1 774.5 35.6 774.5 43.4"/>
    <polygon class="cls-2" points="768.4 19.8 768.4 23.7 773.9 20.6 779.9 24.1 781.6 23.1 786.6 20.2 773.9 12.8 765.1 17.9 768.4 19.8 768.4 19.8"/>
    <polygon class="cls-2" points="753.2 13.2 740.5 20.5 740.5 35.3 747.2 31.4 747.2 24.4 753.2 21 753.2 13.2"/>
    <polygon class="cls-2" points="760.5 24.4 760.5 32.1 760.5 36 761.6 36.7 773.3 43.4 773.3 35.6 767.2 32.1 767.2 25.8 767.2 20.5 754.5 13.2 754.5 21 758.2 23.1 760.5 24.4"/>
  </g>
  <g>
    <path class="cls-2" d="M969.3,25.1h1.9v-1.5c-.2-2,1.2-3.7,3.2-3.9,0,0,0,0,0,0,.2,0,.4,0,.7,0,.9,0,1.8.1,2.6.3l-.6,2.4c-.4-.2-.9-.2-1.3-.3-.4,0-.7.1-1,.3-.3.3-.5.8-.4,1.2v1.5h2.3v2.1h-2.3v10.6h-3.1v-10.6h-1.8v-2.1Z"/>
    <path class="cls-2" d="M983.8,30.4c1.2,0,2.4.2,3.5.5v-1.2c0-.7-.1-1.4-.5-2-.4-.5-1.1-.7-1.7-.6-.7,0-1.3.1-1.9.5-.4.3-.7.8-.7,1.4h-3.4c-.1-1.2.5-2.5,1.5-3.1,1.3-.7,2.8-1,4.3-1,2.6,0,4.3.9,5.1,2.7.3.7.4,1.5.4,2.2v8.1h-2.7l-.2-1.7c-.8,1.3-2.2,2.1-3.8,2-1.4,0-2.7-.3-3.8-1.2-.8-.7-1.3-1.8-1.3-2.9,0-1.1.5-2.1,1.4-2.7,1.1-.7,2.5-1,3.8-1ZM987.4,32.8c-.9-.3-1.9-.4-2.9-.4-1.7,0-2.5.6-2.5,1.7,0,.5.2.9.6,1.2.5.4,1.2.6,1.8.5.8,0,1.5-.3,2.1-.8.6-.6.9-1.3.9-2.1Z"/>
    <path class="cls-2" d="M1005.1,26.6c1.1,1.3,1.7,3.1,1.6,4.8,0,1.8-.5,3.5-1.7,4.9-1,1.2-2.5,1.9-4.1,1.9-.8,0-1.5-.2-2.2-.6-.7-.5-1.3-1.1-1.6-1.9l-.8,2.2h-2v-18h3.1v6.7c.8-1.3,2.1-2,3.6-1.9,1.6,0,3.1.6,4,1.9ZM997.5,30.7v1.7c0,.9.3,1.7,1,2.2.6.6,1.3.9,2.1.8.8,0,1.6-.4,2.1-1.1,1.2-1.7,1.2-4,0-5.7-.5-.7-1.3-1.1-2.2-1.1-.8,0-1.6.3-2.2.9-.6.6-.9,1.4-.9,2.2h0Z"/>
    <path class="cls-2" d="M1016.2,21.8c-.4-.2-.9-.3-1.4-.3-.5,0-1,.1-1.4.4-.4.4-.6,1-.5,1.6v1.9h2.6v1.4h-2.6v11.1h-2v-11.1h-2.1v-1.4h2.1v-1.9c0-1,.3-2,1-2.7.7-.6,1.5-.9,2.4-.9.8,0,1.6.1,2.3.3l-.4,1.6Z"/>
    <path class="cls-2" d="M1023,25c1.6,0,3.1.5,4.2,1.7,1.2,1.3,1.7,3.1,1.6,4.9.1,1.8-.5,3.5-1.6,4.8-2.4,2.3-6.1,2.3-8.4,0-1.1-1.3-1.7-3.1-1.6-4.8-.1-1.8.5-3.5,1.6-4.9,1.1-1.1,2.6-1.7,4.2-1.7ZM1026.8,31.5c0-1.2-.3-2.5-.9-3.5-.6-.8-1.7-1.3-2.7-1.3-1.1,0-2.1.4-2.8,1.3-.7,1-1,2.3-1,3.5,0,1.2.3,2.5.9,3.5.6.9,1.7,1.3,2.7,1.3,1.1,0,2.1-.4,2.8-1.3.7-1,1-2.3.9-3.5Z"/>
    <path class="cls-2" d="M1040.8,35.3c-.7,1.7-2.3,2.8-4.2,2.7-1.2,0-2.4-.3-3.4-1.1-.9-1-1.4-2.3-1.3-3.6v-8h2.1v7.8c0,2.1,1,3.2,2.9,3.2,1.1,0,2.1-.5,2.8-1.3.7-1,1.1-2.2,1.1-3.4v-6.3h2.1v12.5h-2.1v-2.5Z"/>
    <path class="cls-2" d="M1049.5,27.7c1.1-2.4,3.9-3.4,6.2-2.3.5.3,1,.6,1.4,1,.9,1.1,1.3,2.6,1.2,4v7.4h-2v-7.4c0-1-.2-2-.9-2.7-.6-.6-1.5-1-2.4-.9-1,0-2,.5-2.5,1.3-.7,1-1.1,2.3-1,3.6v6.1h-2.1v-12.5h1.8l.2,2.4Z"/>
    <path class="cls-2" d="M1071,27.2v-7.2h2v17.8h-1.7l-.3-2.1c-.4.7-.9,1.3-1.6,1.8-.7.4-1.4.6-2.2.6-1.5,0-3-.6-4-1.8-1.1-1.3-1.7-3-1.6-4.8,0-1.7.5-3.4,1.6-4.7,1-1.2,2.5-1.8,4-1.8,1.5,0,3,.8,3.7,2.2ZM1067.4,26.8c-1,0-2,.5-2.6,1.3-1.4,2.1-1.4,4.8,0,6.9.6.8,1.5,1.3,2.5,1.3.9,0,1.8-.3,2.5-1,.7-.7,1.1-1.6,1.1-2.6v-2c0-1-.3-2-1-2.8-.7-.7-1.6-1.1-2.6-1Z"/>
    <path class="cls-2" d="M1085.5,29.7c0-.9-.2-1.7-.7-2.4-.6-.5-1.3-.8-2.1-.7-.8,0-1.5.2-2.2.5-.6.4-.9,1-.8,1.7h-2.2c-.1-1.8,1.3-3.4,3.1-3.6.7-.1,1.4-.2,2-.2,1.3,0,2.6.3,3.6,1.2.9.9,1.4,2.3,1.3,3.6v8.1h-1.8l-.2-2.1c-.8,1.6-2.4,2.5-4.2,2.4-1.2,0-2.3-.3-3.2-1.1-.8-.7-1.2-1.7-1.2-2.8,0-1,.5-2,1.3-2.6,1-.7,2.2-1,3.4-.9,1.3,0,2.6.2,3.8.7v-1.6ZM1085.5,32.6c-1.1-.3-2.1-.5-3.2-.5-.8,0-1.6.1-2.2.5-.6.3-.9.9-.9,1.6,0,1.6.9,2.4,2.7,2.4,1,0,1.9-.4,2.6-1.1.7-.7,1.1-1.7,1.1-2.8Z"/>
    <path class="cls-2" d="M1098.4,37.4c-1.3.7-2.7.8-4.1.4-.9-.3-1.6-.9-1.9-1.8-.2-.5-.3-1-.3-1.6v-7.7h-2v-1.6h2v-3.5h2v3.5h3.9v1.6h-4v7.7c0,1.3.6,1.9,1.8,1.9.7,0,1.5-.2,2.2-.5l.3,1.5Z"/>
    <path class="cls-2" d="M1102.3,22.3c-.4,0-.7-.1-1-.3-.5-.5-.5-1.4,0-1.9.3-.2.6-.4,1-.3.7,0,1.3.6,1.3,1.3,0,.7-.6,1.3-1.3,1.3,0,0,0,0,0,0ZM1101.3,25.3h2.1v12.5h-2.1v-12.5Z"/>
    <path class="cls-2" d="M1112.9,25c1.6,0,3.1.6,4.2,1.7,1.2,1.3,1.7,3.1,1.6,4.9.1,1.8-.5,3.5-1.6,4.8-2.4,2.3-6.1,2.3-8.4,0-1.1-1.3-1.7-3.1-1.6-4.8-.1-1.8.5-3.5,1.6-4.9,1.1-1.1,2.6-1.8,4.2-1.7ZM1116.6,31.5c0-1.2-.3-2.5-.9-3.5-.7-.9-1.7-1.3-2.8-1.3-1.1,0-2.1.4-2.8,1.3-.7,1-1,2.3-1,3.5,0,1.2.3,2.5.9,3.5.6.9,1.7,1.3,2.7,1.3,1.1,0,2.1-.4,2.8-1.3.7-1,1.1-2.3,1-3.5Z"/>
    <path class="cls-2" d="M1124.1,27.7c1.1-2.4,3.9-3.4,6.2-2.3.5.3,1,.6,1.4,1,.9,1.1,1.3,2.6,1.2,4v7.4h-2v-7.4c0-1-.2-2-.9-2.7-.6-.6-1.5-1-2.4-.9-1,0-2,.5-2.5,1.3-.7,1-1.1,2.3-1,3.6v6.1h-2.1v-12.5h1.8l.2,2.4Z"/>
    <path class="cls-2" d="M951.3,41.1v-1c0,0,0-.2-.1-.2l-2.1-1.2c0,0-.1-.1-.1-.2v-2.8h.3c1.4-.9,1.6-3.3.4-5.4s-3.3-3.1-4.7-2.3-1.6,3.2-.4,5.2c.2.3.4.6.6.8,0,0,0,0,0,.1v1.8c0,.1-.1.2-.2.2h0s0,0-.1,0l-2.5-1.6c0,0-.1-.1-.1-.2v-10.4c0,0,0-.2-.1-.2l-.7-.4c-.1,0-.3,0-.3,0,0,0,0,0,0,0h0c-3,6-.5,13.4,5.6,16.3,1.5.7,3.2,1.2,4.8,1.2"/>
    <path class="cls-2" d="M944.8,21.6c0,0,.2,0,.2,0l2.4,1.4c0,0,0,.2,0,.3,0,1.6,1.9,2.9,4.3,3,2.4,0,4.4-1.3,4.4-2.9,0-1.6-1.9-2.9-4.3-3-.3,0-.7,0-1,0,0,0,0,0-.1,0l-1.5-.9c-.1,0-.1-.2,0-.3,0,0,0,0,0,0l2.6-1.5c0,0,.2,0,.2,0l9,5.2c0,0,.2,0,.2,0l.7-.4c.1,0,.2-.2,0-.3-3.7-5.6-11.3-7.2-16.9-3.5-1.4.9-2.5,2.1-3.5,3.5,0,.1,0,.3,0,.3h0l.7.4c0,0,.2,0,.2,0l2.3-1.3Z"/>
    <path class="cls-2" d="M961.6,26.5c0,0,0,.2-.1.2l-2.4,1.4c0,0-.2-.1-.2-.2-1.4-.8-3.5.2-4.7,2.2s-1.1,4.4.3,5.2,3.5-.2,4.7-2.2c.2-.3.3-.6.4-.9,0,0,0,0,0-.1l1.6-.9c.1,0,.3,0,.3,0,0,0,0,0,0,0,0,0,0,0,0,.1v3.1c0,0,0,.2-.1.2l-9,5.2c0,0-.1.1-.1.2v.8c0,.1.1.2.2.2h0c1.9-.1,3.7-.7,5.3-1.7,5.6-3.2,7.7-10.2,4.8-16,0-.1-.2-.2-.3-.1,0,0,0,0,0,0h0l-.7.4c0,0-.1.1-.1.2v2.5Z"/>
  </g>
  <g>
    <path class="cls-2" d="M138.8,16.4l-.7,2.4h1.4s-.7-2.4-.7-2.4h0Z"/>
    <path class="cls-2" d="M130.2,40.8c0-.4-.3-.6-.7-.6h-.6s0,1.2,0,1.2h.6c.4,0,.7-.2.7-.6Z"/>
    <path class="cls-2" d="M129.6,42.6h-.8v1.4h.8c.5,0,.8-.3.8-.7h0c0-.4-.3-.7-.8-.7Z"/>
    <path class="cls-2" d="M149.1,17.1c0-.4-.3-.6-.8-.6h-.6s0,1.2,0,1.2h.6c.4,0,.8-.2.8-.6Z"/>
    <path class="cls-2" d="M148.5,18.8h-.8v1.4h.8c.5,0,.8-.3.8-.7s-.3-.7-.8-.7Z"/>
    <path class="cls-2" d="M156.8,24.3v-11.9h-35.6v11.9h10.4v11.8h-10.4v11.9h35.6v-11.9h10.4v-11.9h-10.4ZM131.3,16.5h-2.6v1.2h2.2v1.4h-2.2v2.4h-1.8v-6.2h4.4v1.2ZM145.8,15.2h3.2c1.3,0,2,.7,2,1.7s-.3,1.3-1,1.5c.9.1,1.3.7,1.3,1.5h0c0,1.1-.8,1.6-2.2,1.6h-3.3v-6.2ZM130.2,45.2h-3.3v-6.2h3.2c1.3,0,2,.7,2,1.7s-.3,1.3-1,1.5c.9.1,1.3.7,1.3,1.5h0c0,1.1-.8,1.6-2.2,1.6ZM139.1,43.5c.5,0,1-.2,1.3-.7l1.2,1.2c-.6.7-1.6,1.2-2.5,1.2-1.8,0-3.2-1.4-3.2-3.1s1.5-3.1,3.2-3.1c1,0,1.9.4,2.5,1.2l-1.2,1.1c-.3-.4-.8-.7-1.3-.7,0,0,0,0-.1,0-.8,0-1.4.7-1.4,1.5,0,.8.7,1.4,1.5,1.4ZM141.7,33.3h-4.4v-6.2h1.8v4.7h2.6v1.5ZM140.2,21.4l-.4-1.2h-2.2l-.4,1.2h-1.8l2.2-6.2h2.1l2.2,6.2h-1.8ZM151.3,45.2h-1.8l-1.7-3.1c-.1-.3-.3-.5-.3-.8h0v3.8h-1.6v-6.3h1.9l1.6,3c.1.3.3.5.4.8h0v-3.8h1.6v6.3ZM150.6,33.3l-.4-1.2h-2.2l-.4,1.2h-1.8l2.2-6.2h2.1l2.2,6.2h-1.8ZM159.5,33.3h-3.3v-6.2h3.2c1.3,0,2,.7,2,1.7s-.3,1.3-1,1.5c.9.1,1.3.7,1.3,1.5h0c0,1.1-.8,1.5-2.2,1.5Z"/>
    <path class="cls-2" d="M149.1,28.3l-.7,2.4h1.4s-.7-2.4-.7-2.4h0Z"/>
    <path class="cls-2" d="M159.5,29c0-.4-.3-.6-.8-.6h-.6s0,1.2,0,1.2h.6c.4,0,.8-.2.8-.6Z"/>
    <path class="cls-2" d="M158.9,30.7h-.8v1.4h.8c.5,0,.8-.3.8-.7s-.3-.7-.8-.7Z"/>
  </g>
  <rect class="cls-2" x="918.3" y="14.3" width="1.7" height="32.9"/>
  <rect class="cls-2" x="716.9" y="14.3" width="1.7" height="32.9"/>
  <rect class="cls-2" x="548.6" y="14.3" width="1.7" height="32.9"/>
  <rect class="cls-2" x="363.2" y="14.3" width="1.7" height="32.9"/>
  <rect class="cls-2" x="193.9" y="14.3" width="1.7" height="32.9"/>
  <g>
    <path class="cls-2" d="M442.9,20.7c-5.6,0-10.1,4.5-10.1,10.1s4.5,10.1,10.1,10.1,10.1-4.5,10.1-10.1-4.5-10.1-10.1-10.1ZM444.9,35.5v-3.2c0-1.2-.9-2.2-2.1-2.2s-2.1,1-2.1,2.2v3.2h-3.8l.6-6.3,1.8-3.9.8,3.2,2.6-4.3,2.6,4.3.8-3.2,1.9,3.9.6,6.3h-3.8Z"/>
    <g>
      <path class="cls-2" d="M389.2,32.6l1.7-6.6h2.8l1.7,6.6,1.6-6.6h2.4l-2.6,9.5h-2.7l-1.8-6.8-1.9,6.8h-2.7l-2.6-9.5h2.4l1.6,6.6Z"/>
      <path class="cls-2" d="M400.6,32.9c0-2.2,1.8-3.2,4-3.2s1.5.2,1.9.3v-.7c0-1-.8-1.6-1.9-1.6s-1.7.3-2.3,1.4l-1.5-1.4c.8-1.4,2.3-2,3.8-2,2.4,0,4.1,1.2,4.1,3.6v6.2h-2.2v-.7c-.6.5-1.5.9-2.7.9s-3.2-1.1-3.2-2.9ZM404.2,33.8c.9,0,1.8-.4,2.2-.8v-1.1c-.6-.2-1.2-.4-2-.4s-1.7.4-1.7,1.2.5,1.1,1.4,1.1Z"/>
      <path class="cls-2" d="M410.7,32.9c0-2.2,1.8-3.2,4-3.2s1.5.2,1.9.3v-.7c0-1-.8-1.6-1.9-1.6s-1.7.3-2.3,1.4l-1.5-1.4c.8-1.4,2.3-2,3.8-2,2.4,0,4.1,1.2,4.1,3.6v6.2h-2.2v-.7c-.6.5-1.5.9-2.7.9s-3.2-1.1-3.2-2.9ZM414.3,33.8c.9,0,1.8-.4,2.2-.8v-1.1c-.6-.2-1.2-.4-2-.4s-1.7.4-1.7,1.2.5,1.1,1.4,1.1Z"/>
      <path class="cls-2" d="M422.7,35.9c.4.7,1.2,1.7,2.6,1.7s2.5-.9,2.5-2.7v-.5c-.6.5-1.4.9-2.5.9-2.7,0-4.6-2-4.6-4.8s1.9-4.8,4.6-4.8,2,.4,2.6,1v-.8h2.2v8.8c0,2.9-1.9,4.8-4.7,4.8s-3.8-1.4-4.3-2.1l1.6-1.5ZM425.5,33.3c1.5,0,2.4-1.1,2.4-2.8s-1-2.8-2.4-2.8-2.4,1.1-2.4,2.8c0,1.6.9,2.8,2.4,2.8Z"/>
    </g>
    <g>
      <path class="cls-2" d="M460.7,21.9v2s-.3,0-.5,0c-1.4,0-2,.5-2,1.9h0c0,.1,2.3.1,2.3.1v2h-2.3v7.5h-2.2v-7.5h-1.4v-2h1.4v-.5c0-2.4,1.4-3.6,3.8-3.6.5,0,.9,0,.9,0Z"/>
      <path class="cls-2" d="M466,33.8c1.3,0,2-1,2-2.4v-5.4h2.2v9.5h-2.2v-.8c-.6.7-1.4,1-2.5,1-2.1,0-3.6-1.5-3.6-4.2v-5.5h2.2v5.7c0,1.3.6,2.1,1.8,2.1Z"/>
      <path class="cls-2" d="M473.4,28h-1.6v-2h1.6v-2.7h2.2v2.7h2.5v2h-2.5v5.5h2.4v2.1h-4.6v-7.6Z"/>
      <path class="cls-2" d="M484,33.8c1.3,0,2-1,2-2.4v-5.4h2.2v9.5h-2.2v-.8c-.6.7-1.4,1-2.5,1-2.1,0-3.6-1.5-3.6-4.2v-5.5h2.2v5.7c0,1.3.6,2.1,1.8,2.1Z"/>
      <path class="cls-2" d="M490.9,35.6v-9.5h5.3v2.1h-3.1v7.4h-2.2Z"/>
      <path class="cls-2" d="M500,32.3v1.3h4.8v2h-6.9v-6.1c0-2.3,1.7-3.7,3.6-3.7s3.6,1.5,3.6,3.4-1.7,3.4-3.6,3.4c-.6,0-1,0-1.4-.3ZM502.9,29.2c0-.7-.6-1.4-1.5-1.4s-1.5.7-1.5,1.4.6,1.4,1.5,1.4,1.5-.6,1.5-1.4Z"/>
      <path class="cls-2" d="M509.3,21.9v13.6h-2.2v-13.6h2.2Z"/>
      <path class="cls-2" d="M519.3,26v9.5h-4.4c-2.1,0-3.5-1.2-3.5-3s1.4-3,3.5-3h2.2v-1.5h-4.8v-1.9h7ZM517.1,31.4h-2.2c-.9,0-1.4.4-1.4,1.1s.6,1.1,1.4,1.1h2.2v-2.3Z"/>
      <path class="cls-2" d="M527,35.8c-1.4,0-2.1-.5-2.7-1.1v.9h-2.2v-13.6h2.2v4.8c.5-.5,1.4-.9,2.7-.9,2.8,0,4.6,2.1,4.6,5,0,2.9-1.9,5-4.6,5ZM526.9,33.8c1.7,0,2.5-1.4,2.5-3s-.9-3-2.5-3-2.5,1.4-2.5,3,.8,3,2.5,3Z"/>
    </g>
  </g>
</svg>